<svg width="1280" height="720" xmlns="http://www.w3.org/2000/svg" xmlns:xlink="http://www.w3.org/1999/xlink" overflow="hidden"><defs><filter id="fx0" x="-10%" y="-10%" width="120%" height="120%" filterUnits="userSpaceOnUse" primitiveUnits="userSpaceOnUse"><feComponentTransfer color-interpolation-filters="sRGB"><feFuncR type="discrete" tableValues="0 0"/><feFuncG type="discrete" tableValues="0 0"/><feFuncB type="discrete" tableValues="0 0"/><feFuncA type="linear" slope="1" intercept="0"/></feComponentTransfer><feGaussianBlur stdDeviation="5.77778 5.77778"/></filter><filter id="fx1" x="-10%" y="-10%" width="120%" height="120%" filterUnits="userSpaceOnUse" primitiveUnits="userSpaceOnUse"><feComponentTransfer color-interpolation-filters="sRGB"><feFuncR type="discrete" tableValues="0 0"/><feFuncG type="discrete" tableValues="0 0"/><feFuncB type="discrete" tableValues="0 0"/><feFuncA type="linear" slope="1" intercept="0"/></feComponentTransfer><feGaussianBlur stdDeviation="5.77778 5.77778"/></filter><filter id="fx2" x="-10%" y="-10%" width="120%" height="120%" filterUnits="userSpaceOnUse" primitiveUnits="userSpaceOnUse"><feComponentTransfer color-interpolation-filters="sRGB"><feFuncR type="discrete" tableValues="0 0"/><feFuncG type="discrete" tableValues="0 0"/><feFuncB type="discrete" tableValues="0 0"/><feFuncA type="linear" slope="1" intercept="0"/></feComponentTransfer><feGaussianBlur stdDeviation="5.77778 5.77778"/></filter><filter id="fx3" x="-10%" y="-10%" width="120%" height="120%" filterUnits="userSpaceOnUse" primitiveUnits="userSpaceOnUse"><feComponentTransfer color-interpolation-filters="sRGB"><feFuncR type="discrete" tableValues="0 0"/><feFuncG type="discrete" tableValues="0 0"/><feFuncB type="discrete" tableValues="0 0"/><feFuncA type="linear" slope="1" intercept="0"/></feComponentTransfer><feGaussianBlur stdDeviation="5.77778 5.77778"/></filter><filter id="fx4" x="-10%" y="-10%" width="120%" height="120%" filterUnits="userSpaceOnUse" primitiveUnits="userSpaceOnUse"><feComponentTransfer color-interpolation-filters="sRGB"><feFuncR type="discrete" tableValues="0 0"/><feFuncG type="discrete" tableValues="0 0"/><feFuncB type="discrete" tableValues="0 0"/><feFuncA type="linear" slope="1" intercept="0"/></feComponentTransfer><feGaussianBlur stdDeviation="5.77778 5.77778"/></filter><filter id="fx5" x="-10%" y="-10%" width="120%" height="120%" filterUnits="userSpaceOnUse" primitiveUnits="userSpaceOnUse"><feComponentTransfer color-interpolation-filters="sRGB"><feFuncR type="discrete" tableValues="0 0"/><feFuncG type="discrete" tableValues="0 0"/><feFuncB type="discrete" tableValues="0 0"/><feFuncA type="linear" slope="1" intercept="0"/></feComponentTransfer><feGaussianBlur stdDeviation="5.77778 5.77778"/></filter><filter id="fx6" x="-10%" y="-10%" width="120%" height="120%" filterUnits="userSpaceOnUse" primitiveUnits="userSpaceOnUse"><feComponentTransfer color-interpolation-filters="sRGB"><feFuncR type="discrete" tableValues="0 0"/><feFuncG type="discrete" tableValues="0 0"/><feFuncB type="discrete" tableValues="0 0"/><feFuncA type="linear" slope="1" intercept="0"/></feComponentTransfer><feGaussianBlur stdDeviation="5.77778 5.77778"/></filter><filter id="fx7" x="-10%" y="-10%" width="120%" height="120%" filterUnits="userSpaceOnUse" primitiveUnits="userSpaceOnUse"><feComponentTransfer color-interpolation-filters="sRGB"><feFuncR type="discrete" tableValues="0 0"/><feFuncG type="discrete" tableValues="0 0"/><feFuncB type="discrete" tableValues="0 0"/><feFuncA type="linear" slope="1" intercept="0"/></feComponentTransfer><feGaussianBlur stdDeviation="5.77778 5.77778"/></filter><filter id="fx8" x="-10%" y="-10%" width="120%" height="120%" filterUnits="userSpaceOnUse" primitiveUnits="userSpaceOnUse"><feComponentTransfer color-interpolation-filters="sRGB"><feFuncR type="discrete" tableValues="0 0"/><feFuncG type="discrete" tableValues="0 0"/><feFuncB type="discrete" tableValues="0 0"/><feFuncA type="linear" slope="1" intercept="0"/></feComponentTransfer><feGaussianBlur stdDeviation="5.77778 5.77778"/></filter><filter id="fx9" x="-10%" y="-10%" width="120%" height="120%" filterUnits="userSpaceOnUse" primitiveUnits="userSpaceOnUse"><feComponentTransfer color-interpolation-filters="sRGB"><feFuncR type="discrete" tableValues="0 0"/><feFuncG type="discrete" tableValues="0 0"/><feFuncB type="discrete" tableValues="0 0"/><feFuncA type="linear" slope="1" intercept="0"/></feComponentTransfer><feGaussianBlur stdDeviation="5.77778 5.77778"/></filter><filter id="fx10" x="-10%" y="-10%" width="120%" height="120%" filterUnits="userSpaceOnUse" primitiveUnits="userSpaceOnUse"><feComponentTransfer color-interpolation-filters="sRGB"><feFuncR type="discrete" tableValues="0 0"/><feFuncG type="discrete" tableValues="0 0"/><feFuncB type="discrete" tableValues="0 0"/><feFuncA type="linear" slope="1" intercept="0"/></feComponentTransfer><feGaussianBlur stdDeviation="5.77778 5.77778"/></filter><filter id="fx11" x="-10%" y="-10%" width="120%" height="120%" filterUnits="userSpaceOnUse" primitiveUnits="userSpaceOnUse"><feComponentTransfer color-interpolation-filters="sRGB"><feFuncR type="discrete" tableValues="0 0"/><feFuncG type="discrete" tableValues="0 0"/><feFuncB type="discrete" tableValues="0 0"/><feFuncA type="linear" slope="1" intercept="0"/></feComponentTransfer><feGaussianBlur stdDeviation="5.77778 5.77778"/></filter><filter id="fx12" x="-10%" y="-10%" width="120%" height="120%" filterUnits="userSpaceOnUse" primitiveUnits="userSpaceOnUse"><feComponentTransfer color-interpolation-filters="sRGB"><feFuncR type="discrete" tableValues="0 0"/><feFuncG type="discrete" tableValues="0 0"/><feFuncB type="discrete" tableValues="0 0"/><feFuncA type="linear" slope="1" intercept="0"/></feComponentTransfer><feGaussianBlur stdDeviation="5.77778 5.77778"/></filter><radialGradient cx="12191999" cy="6858000" r="13988461" fx="12192000" fy="6858000" gradientUnits="userSpaceOnUse" spreadMethod="pad" id="fill13" gradientTransform="scale(0.000104987 0.000104987)"><stop offset="0" stop-color="#C69E96"/><stop offset="0.35" stop-color="#414571"/><stop offset="1" stop-color="#2F3D68"/></radialGradient></defs><g><rect x="0" y="0" width="1280" height="720" fill="url(#fill13)"/><g filter="url(#fx0)" transform="translate(30 1)"><g><path d="M19 26.0872C19 22.173 22.173 19 26.087 19L1204.91 19C1208.83 19 1212 22.173 1212 26.0872L1212 68.9128C1212 72.827 1208.83 76 1204.91 76L26.087 76C22.173 76 19 72.827 19 68.9128Z" fill="#F2F2F2" fill-rule="evenodd"/></g></g><path d="M41 27.0872C41 23.173 44.173 20 48.087 20L1226.91 20C1230.83 20 1234 23.173 1234 27.0872L1234 69.9128C1234 73.827 1230.83 77 1226.91 77L48.087 77C44.173 77 41 73.827 41 69.9128Z" fill="#F2F2F2" fill-rule="evenodd"/><g filter="url(#fx1)" transform="translate(30 70)"><g><path d="M19 26.2123C19 22.2291 22.229 19 26.2123 19L1204.79 19C1208.77 19 1212 22.2291 1212 26.2123L1212 69.7877C1212 73.7709 1208.77 77 1204.79 77L26.2123 77C22.229 77 19 73.7709 19 69.7877Z" fill="#F2F2F2" fill-rule="evenodd"/></g></g><path d="M41 96.2123C41 92.2291 44.229 89 48.2123 89L1226.79 89C1230.77 89 1234 92.2291 1234 96.2123L1234 139.788C1234 143.771 1230.77 147 1226.79 147L48.2123 147C44.229 147 41 143.771 41 139.788Z" fill="#F2F2F2" fill-rule="evenodd"/><g filter="url(#fx2)" transform="translate(30 348)"><g><path d="M19 29.0579C19 23.5031 23.5031 19 29.0578 19L442.942 19C448.497 19 453 23.5031 453 29.0579L453 105.942C453 111.497 448.497 116 442.942 116L29.0578 116C23.5031 116 19 111.497 19 105.942Z" fill="#F2F2F2" fill-rule="evenodd"/></g></g><path d="M41 377.058C41 371.503 45.5031 367 51.0578 367L464.942 367C470.497 367 475 371.503 475 377.058L475 453.942C475 459.497 470.497 464 464.942 464L51.0578 464C45.5031 464 41 459.497 41 453.942Z" fill="#F2F2F2" fill-rule="evenodd"/><g filter="url(#fx3)" transform="translate(30 457)"><g><path d="M19 29.9611C19 23.9074 23.9074 19 29.9611 19L442.039 19C448.093 19 453 23.9074 453 29.9611L453 227.039C453 233.093 448.093 238 442.039 238L29.9611 238C23.9074 238 19 233.093 19 227.039Z" fill="#F2F2F2" fill-rule="evenodd"/></g></g><path d="M41 486.961C41 480.907 45.9074 476 51.9611 476L464.039 476C470.093 476 475 480.907 475 486.961L475 684.039C475 690.093 470.093 695 464.039 695L51.9611 695C45.9074 695 41 690.093 41 684.039Z" fill="#F2F2F2" fill-rule="evenodd"/><g filter="url(#fx4)" transform="translate(491 385)"><g><path d="M19 34.7808C19 26.0653 26.0653 19 34.7807 19L735.219 19C743.935 19 751 26.0653 751 34.7808L751 294.219C751 302.935 743.935 310 735.219 310L34.7807 310C26.0653 310 19 302.935 19 294.219Z" fill="#F2F2F2" fill-rule="evenodd"/></g></g><path d="M502 419.781C502 411.065 509.065 404 517.781 404L1218.22 404C1226.93 404 1234 411.065 1234 419.781L1234 679.219C1234 687.935 1226.93 695 1218.22 695L517.781 695C509.065 695 502 687.935 502 679.219Z" fill="#F2F2F2" fill-rule="evenodd"/><g filter="url(#fx5)" transform="translate(491 143)"><g><path d="M19 32.8774C19 25.2131 25.2131 19 32.8774 19L273.123 19C280.787 19 287 25.2131 287 32.8774L287 234.123C287 241.787 280.787 248 273.123 248L32.8774 248C25.2131 248 19 241.787 19 234.123Z" fill="#F2F2F2" fill-rule="evenodd"/></g></g><path d="M502 175.877C502 168.213 508.213 162 515.877 162L756.123 162C763.787 162 770 168.213 770 175.877L770 377.123C770 384.787 763.787 391 756.123 391L515.877 391C508.213 391 502 384.787 502 377.123Z" fill="#F2F2F2" fill-rule="evenodd"/><g filter="url(#fx6)" transform="translate(30 148)"><g><path d="M19 25.0135C19 21.6923 21.6923 19 25.0135 19L153.987 19C157.308 19 160 21.6923 160 25.0135L160 99.9865C160 103.308 157.308 106 153.987 106L25.0135 106C21.6923 106 19 103.308 19 99.9865Z" fill="#F2F2F2" fill-rule="evenodd"/></g></g><path d="M41 173.013C41 169.692 43.6923 167 47.0135 167L175.987 167C179.308 167 182 169.692 182 173.013L182 247.987C182 251.308 179.308 254 175.987 254L47.0135 254C43.6923 254 41 251.308 41 247.987Z" fill="#F2F2F2" fill-rule="evenodd"/><g filter="url(#fx7)" transform="translate(30 239)"><g><path d="M19 27.4381C19 22.7779 22.7779 19 27.4381 19L151.562 19C156.222 19 160 22.7779 160 27.4381L160 97.5619C160 102.222 156.222 106 151.562 106L27.4381 106C22.7779 106 19 102.222 19 97.5619Z" fill="#F2F2F2" fill-rule="evenodd"/></g></g><path d="M41 266.438C41 261.778 44.7779 258 49.4381 258L173.562 258C178.222 258 182 261.778 182 266.438L182 336.562C182 341.222 178.222 345 173.562 345L49.4381 345C44.7779 345 41 341.222 41 336.562Z" fill="#F2F2F2" fill-rule="evenodd"/><g filter="url(#fx8)" transform="translate(771 143)"><g><path d="M19 32.8937C19 25.2204 25.2204 19 32.8937 19L457.106 19C464.78 19 471 25.2204 471 32.8937L471 234.106C471 241.78 464.78 248 457.106 248L32.8937 248C25.2204 248 19 241.78 19 234.106Z" fill="#F2F2F2" fill-rule="evenodd"/></g></g><path d="M782 175.894C782 168.22 788.22 162 795.894 162L1220.11 162C1227.78 162 1234 168.22 1234 175.894L1234 377.106C1234 384.78 1227.78 391 1220.11 391L795.894 391C788.22 391 782 384.78 782 377.106Z" fill="#F2F2F2" fill-rule="evenodd"/><g filter="url(#fx9)" transform="translate(177 148)"><g><path d="M19 23.8016C19 21.1497 21.1497 19 23.8016 19L154.198 19C156.85 19 159 21.1497 159 23.8016L159 101.198C159 103.85 156.85 106 154.198 106L23.8016 106C21.1497 106 19 103.85 19 101.198Z" fill="#F2F2F2" fill-rule="evenodd"/></g></g><path d="M188 171.802C188 169.15 190.15 167 192.802 167L323.198 167C325.85 167 328 169.15 328 171.802L328 249.198C328 251.85 325.85 254 323.198 254L192.802 254C190.15 254 188 251.85 188 249.198Z" fill="#F2F2F2" fill-rule="evenodd"/><g filter="url(#fx10)" transform="translate(177 239)"><g><path d="M19 26.2263C19 22.2353 22.2353 19 26.2263 19L151.774 19C155.765 19 159 22.2353 159 26.2263L159 98.7737C159 102.765 155.765 106 151.774 106L26.2263 106C22.2353 106 19 102.765 19 98.7737Z" fill="#F2F2F2" fill-rule="evenodd"/></g></g><path d="M188 265.226C188 261.235 191.235 258 195.226 258L320.774 258C324.765 258 328 261.235 328 265.226L328 337.774C328 341.765 324.765 345 320.774 345L195.226 345C191.235 345 188 341.765 188 337.774Z" fill="#F2F2F2" fill-rule="evenodd"/><g filter="url(#fx11)" transform="translate(322 148)"><g><path d="M19 26.2263C19 22.2353 22.2353 19 26.2262 19L152.774 19C156.765 19 160 22.2353 160 26.2263L160 98.7737C160 102.765 156.765 106 152.774 106L26.2262 106C22.2353 106 19 102.765 19 98.7737Z" fill="#F2F2F2" fill-rule="evenodd"/></g></g><path d="M333 174.226C333 170.235 336.235 167 340.226 167L466.774 167C470.765 167 474 170.235 474 174.226L474 246.774C474 250.765 470.765 254 466.774 254L340.226 254C336.235 254 333 250.765 333 246.774Z" fill="#F2F2F2" fill-rule="evenodd"/><g filter="url(#fx12)" transform="translate(322 239)"><g><path d="M19 26.2263C19 22.2353 22.2353 19 26.2262 19L152.774 19C156.765 19 160 22.2353 160 26.2263L160 98.7737C160 102.765 156.765 106 152.774 106L26.2262 106C22.2353 106 19 102.765 19 98.7737Z" fill="#F2F2F2" fill-rule="evenodd"/></g></g><path d="M333 265.226C333 261.235 336.235 258 340.226 258L466.774 258C470.765 258 474 261.235 474 265.226L474 337.774C474 341.765 470.765 345 466.774 345L340.226 345C336.235 345 333 341.765 333 337.774Z" fill="#F2F2F2" fill-rule="evenodd"/></g></svg>